<svg xmlns="http://www.w3.org/2000/svg" data-testid="InstagramIcon" class="svg-icon svg-icon-instagram" focusable="false" height="20" width="20" viewBox="0 0 12 12" aria-hidden="true" fill="#ffffff">
                            <path d="M 6 1.0815 c 1.602 0 1.792 0.006 2.425 0.035 c 1.626 0.074 2.3855 0.8455 2.4595 2.4595 c 0.029 0.6325 0.0345 0.8225 0.0345 2.4245 c 0 1.6025 -0.006 1.792 -0.0345 2.4245 c -0.0745 1.6125 -0.832 2.3855 -2.4595 2.4595 c -0.633 0.029 -0.822 0.035 -2.425 0.035 c -1.602 0 -1.792 -0.006 -2.4245 -0.035 c -1.63 -0.0745 -2.3855 -0.8495 -2.4595 -2.46 c -0.029 -0.6325 -0.035 -0.822 -0.035 -2.4245 c 0 -1.602 0.0065 -1.7915 0.035 -2.4245 c 0.0745 -1.6135 0.832 -2.3855 2.4595 -2.4595 c 0.633 -0.0285 0.8225 -0.0345 2.4245 -0.0345 z m 0 -1.0815 c -1.6295 0 -1.8335 0.007 -2.4735 0.036 c -2.179 0.1 -3.39 1.309 -3.49 3.49 c -0.0295 0.6405 -0.0365 0.8445 -0.0365 2.474 c 0 1.6295 0.007 1.834 0.036 2.474 c 0.1 2.179 1.309 3.39 3.49 3.49 c 0.6405 0.029 0.8445 0.036 2.474 0.036 c 1.6295 0 1.834 -0.007 2.474 -0.036 c 2.177 -0.1 3.391 -1.309 3.4895 -3.49 c 0.0295 -0.64 0.0365 -0.8445 0.0365 -2.474 c 0 -1.6295 -0.007 -1.8335 -0.036 -2.4735 c -0.098 -2.177 -1.3085 -3.39 -3.4895 -3.49 c -0.6405 -0.0295 -0.845 -0.0365 -2.4745 -0.0365 z m 0 2.919 c -1.7015 0 -3.081 1.3795 -3.081 3.081 s 1.3795 3.0815 3.081 3.0815 s 3.081 -1.3795 3.081 -3.0815 c 0 -1.7015 -1.3795 -3.081 -3.081 -3.081 z m 0 5.081 c -1.1045 0 -2 -0.895 -2 -2 c 0 -1.1045 0.8955 -2 2 -2 s 2 0.8955 2 2 c 0 1.105 -0.8955 2 -2 2 z m 3.203 -5.9225 c -0.398 0 -0.7205 0.3225 -0.7205 0.72 s 0.3225 0.72 0.7205 0.72 c 0.3975 0 0.7195 -0.3225 0.7195 -0.72 s -0.322 -0.72 -0.7195 -0.72 z"></path>
                        </svg>