<svg xmlns="http://www.w3.org/2000/svg" data-testid="TwitterIcon" class="svg-icon svg-icon-twitter" focusable="false" height="20" width="20" viewBox="0 0 12 12" aria-hidden="true" fill="#ffffff">
                            <path d="M12 2.404a4.923 4.923 0 0 1-1.414.388 2.47 2.47 0 0 0 1.082-1.362 4.922 4.922 0 0 1-1.563.597A2.462 2.462 0 0 0 5.91 4.272 6.99 6.99 0 0 1 .836 1.702a2.46 2.46 0 0 0 .762 3.287 2.449 2.449 0 0 1-1.115-.309v.031c0 1.193.848 2.188 1.974 2.414a2.462 2.462 0 0 1-1.111.042 2.465 2.465 0 0 0 2.3 1.71A4.942 4.942 0 0 1 0 9.896a6.97 6.97 0 0 0 3.774 1.106c4.528 0 7.004-3.752 7.004-7.005 0-.107-.002-.213-.007-.318.481-.348.898-.781 1.229-1.275"></path>
                        </svg>